<?xml version="1.0" ?><svg id="Layer_1" style="enable-background:new 0 0 128 128;" version="1.1" viewBox="0 0 128 128" xml:space="preserve" xmlns="http://www.w3.org/2000/svg" xmlns:xlink="http://www.w3.org/1999/xlink"><style type="text/css">
	.st0{fill:#F0E402;}
	.st1{fill:#444B54;}
	.st2{fill:#EA551B;}
	.st3{fill:#FF392D;}
	.st4{fill:#FFFFFF;}
	.st5{fill:#57906F;}
	.st6{fill:#FF9217;}
	.st7{fill:#FFFAF0;}
	.st8{fill:#FF4F40;}
	.st9{fill:#F3E9CD;}
	.st10{fill:#F75342;}
	.st11{fill:none;stroke:#444B54;stroke-width:6;stroke-linecap:round;stroke-linejoin:round;stroke-miterlimit:10;}
	.st12{fill:#FFFAEE;}
	.st13{fill:#FFCE94;}
	.st14{fill:#BC9384;}
	.st15{fill:#F5999A;}
	.st16{fill:#C9C9C9;}
	.st17{fill:#95CDEE;}
	.st18{fill:#006E9F;}
	.st19{fill:#C92C28;}
	.st20{fill:#75FA61;}
</style><g><path class="st8" d="M105.6,102.6c10.6-8.2,18.3-19.4,18-32.2c-0.3-10.7-6-20.2-14.6-27.5c0,0-7.5-2-10.9-3.9   C87.7,33,76.8,26.8,65.4,26.8c-31.1,0-64,26.3-61.3,51.8c2.4,22.3,31.4,38.6,58.7,38.8L105.6,102.6z"/><path class="st19" d="M46.7,115.4c-0.2,0-0.5,0-0.7-0.1c-1-0.2-2-0.5-3-0.8c-1.6-0.5-2.5-2.1-2.1-3.7c0.5-1.6,2.1-2.5,3.7-2.1   c0.9,0.3,1.9,0.5,2.8,0.7c1.6,0.4,2.6,2,2.2,3.6C49.2,114.5,48,115.4,46.7,115.4z"/><path class="st19" d="M63.4,117.5c-1.7,0-3-1.3-3-3s1.3-3,3-3c3.4,0,6.7-0.3,9.9-0.8c9.7-1.7,20.4-6.5,28.6-12.8   c1.3-1,3.2-0.8,4.2,0.5c1,1.3,0.8,3.2-0.5,4.2c-9,6.9-20.7,12.2-31.3,14C70.8,117.2,67.1,117.5,63.4,117.5z"/><path class="st19" d="M107,48.3c-0.7,0-1.4-0.2-2-0.7c-10.6-9.1-25.7-14.7-39.6-14.7c-1.7,0-3-1.3-3-3s1.3-3,3-3   c15.2,0,31.9,6.2,43.5,16.2c1.3,1.1,1.4,3,0.3,4.2C108.6,47.9,107.8,48.3,107,48.3z"/><path class="st4" d="M18.5,63.1c-0.6,0-1.2-0.2-1.7-0.5c-1.4-0.9-1.7-2.8-0.8-4.2c3.5-5,8.3-9.8,14-13.8c1.4-1,3.2-0.6,4.2,0.7   c1,1.4,0.6,3.2-0.7,4.2c-5.1,3.6-9.5,7.9-12.5,12.3C20.4,62.7,19.4,63.1,18.5,63.1z"/><path class="st1" d="M49.7,32.8c-12.1,1.1-18.2,3.7-18.7-0.4c-0.4-3.5,9-11.6,20.1-12.4c4.7-0.4,10.6,0.8,10.6,0.8   c1.2-7-1.2-17.7,4.9-18.4c6.3-0.8,3.3,9.9,4,17.1c0,0,18.1-14.1,23.9-5.8c2.6,3.8-12.3,10.1-12.3,10.1s21,1.1,18.9,7.2   c-2,6.2-20.4,4.6-27.6,0.7c0,0,4.4,13.7-3.5,14.9c-7.8,1.3-7.2-15.3-7.2-15.3s-10,21.2-17.8,15.8C39.4,43,49.7,32.8,49.7,32.8z"/><circle class="st1" cx="51.6" cy="64.2" r="3"/><circle class="st1" cx="79.2" cy="61" r="3"/><path class="st19" d="M48.9,79.5c-5.9,5.2,1.6,15.6,4.8,19c3.9,4.2,13.8,0.2,19.7-9.3c0.7-1,4.8-7.8,2.2-11.4   C72.6,73.7,55.4,73.7,48.9,79.5z"/><circle class="st4" cx="13.5" cy="71.8" r="3"/></g></svg>