<?xml version="1.0" ?><svg viewBox="0 0 100 100" xmlns="http://www.w3.org/2000/svg"><title/><g id="Tomato"><path d="M89.11,29.75l2,.55L89.57,28.9c-.1-.09-2.57-2.25-9.41-2.83a21.52,21.52,0,0,0-12.33-5.49,10.85,10.85,0,0,0,5-4.7l.93-1.94L72,15.33c-1.82,1.44-6.49,4.71-10.59,4A13.58,13.58,0,0,0,56.35,19c-.11-1.72-.12-5.83,2.31-6.63l.46-.15L59,11.78a3.51,3.51,0,0,0-1.81-2.15,2.64,2.64,0,0,0-2.41.44l-.14.13c-.17.24-3.85,5.56-3.82,10-2.35-.78-9.9-2.74-17,1.07-4.47,2.36-7,1.88-8.38,1.07a4.33,4.33,0,0,1-2.05-3.58V15l-1,3.63c0,.13-.85,3.23.78,5.41a5,5,0,0,0,3.21,1.86C16.42,32.23,9.57,43.74,9.57,54.46A36.16,36.16,0,0,0,45.69,90.57a37.37,37.37,0,0,0,5.12-.36,37.34,37.34,0,0,0,5.12.36A35.66,35.66,0,0,0,81.4,80c6.5-5,8.46-13.53,8.95-19.82.9-11.45-2.42-25.1-7.49-31.38A36.71,36.71,0,0,1,89.11,29.75ZM77.48,25.94H76.7c-.91,0-1.83,0-2.77.07-2.9.15-10.08-1.92-13.66-3a28.64,28.64,0,0,0,5.48-1.5A20.22,20.22,0,0,1,78.48,26ZM56.41,20.06c.21-.11,1.2-.43,4.83.24,3,.54,6.23-.8,8.69-2.3a14.48,14.48,0,0,1-4.32,2.46l-.14,0A28.78,28.78,0,0,1,58,22.26l-1.88.14ZM23.21,21.61a5.16,5.16,0,0,0,1.68,1.62c1.57.95,4.48,1.54,9.36-1,8-4.27,16.84-.8,16.92-.76l.78.31-.09-.83c-.45-4,3.06-9.33,3.55-10a1.66,1.66,0,0,1,1.43-.29,2.12,2.12,0,0,1,1,1.08c-3.29,1.67-2.47,8-2.43,8.27l.34,2.5-.29,0,.31.1.14,1,.13-.92,1.79.6c.49.16,12,4,16.15,3.76a42.48,42.48,0,0,1,5.93,0h.17a25.49,25.49,0,0,1,5.61,1.05c-1.1-.15-2.44-.28-4-.35a53.87,53.87,0,0,0-7.64.09c-3,.27-10.07-1.23-12.4-1.72l-.33-.07-.23,1c2.63.69,11.25,7.44,14,10a10.51,10.51,0,0,0,5.37,2.28,14.7,14.7,0,0,1-4.36.1,9.24,9.24,0,0,1-1.45-.32c-4-1.2-11.77-8.35-11.86-8.44l-.11-.09-.09-.07-.14-.12-.15-.12-.2-.16L62,29.92l-.26-.2-.24-.18-.3-.22-.27-.2-.34-.24-.3-.21-.39-.26-.32-.21-.42-.27-.32-.2-.47-.28-.31-.18L57.52,27l-.25-.13-.82-.38-.09,0-.72-.27-.27-.08-.53-.15-.31-.06-.47-.08-.31,0-.3,0h-.34a3.38,3.38,0,0,0-.64.11c-2.08.57-3,1.84-4.61,3.93a57.68,57.68,0,0,1-5.49,6.44,9.6,9.6,0,0,1-1.74,1.4,9.87,9.87,0,0,1-5.07,1.44,14.39,14.39,0,0,1-3.11-.29,8.2,8.2,0,0,0,4.12-.88,5.61,5.61,0,0,0,2.76-4c1.44-7.38,8.78-9.19,8.85-9.21L50,24.26l-1.75-.54A21.6,21.6,0,0,0,34,24a19.28,19.28,0,0,1-6.07,1.08h0A4.76,4.76,0,0,1,24,23.48,4.15,4.15,0,0,1,23.21,21.61ZM89.35,60.13c-.48,6.09-2.35,14.35-8.59,19.12l-.05,0A34.67,34.67,0,0,1,55.93,89.57a36.43,36.43,0,0,1-5.05-.36h-.14a36.45,36.45,0,0,1-5.05.36A35.16,35.16,0,0,1,10.57,54.46C10.57,43.68,17.74,32,28,26.08c.2,0,.42,0,.63,0s.44,0,.68,0l.72-.1c.26,0,.52-.06.79-.11l.83-.18c.28-.06.55-.11.84-.19l.91-.26.91-.26a20.76,20.76,0,0,1,12.09-.67A13.73,13.73,0,0,0,39.73,30a12.09,12.09,0,0,0-1,2.34,12.78,12.78,0,0,0-.36,1.37A4.65,4.65,0,0,1,36.1,37c-3.21,1.78-8.61-.09-9.66-.49l-.42.9c1.78,1,11,5.67,17.07-.5a58.59,58.59,0,0,0,5.58-6.54c1.54-2.06,2.32-3.09,4.08-3.57,2.58-.74,7.74,3,9.49,4.55.33.3,8.07,7.38,12.23,8.64.28.09.56.16.84.22l.24,0,.61.11.28,0,.58.06h.27l.58,0h.69l.58,0,.32,0,.33,0,.31,0,.35,0,.46-.07.3-.05.28-.05.26-.05L82,40l.41-.1.18,0,.24-.06.15,0,.24-.07.08,0,.26-.08.05,0,.15,0h0l.08,0,2.78-1A56.08,56.08,0,0,1,89.35,60.13ZM83.69,38.55s-5.27.1-7.82-2.27a102.76,102.76,0,0,0-11.14-8.52c3.12.6,7.27,1.28,9.46,1.09.63-.05,1.26-.09,1.89-.12l.65,0,1.23,0H79.8l.92,0,.76,0a28.23,28.23,0,0,1,5.15,9.73Z"/><path d="M17.21,68.31C9,56,17.15,40.41,17.23,40.26a.5.5,0,0,0-.88-.47c-.09.16-8.55,16.29,0,29.08a.5.5,0,0,0,.42.22.5.5,0,0,0,.42-.78Z"/><path d="M18.11,71a.5.5,0,1,0-.81.58c.15.21,3.62,5.07,5.67,6.73a.5.5,0,0,0,.63-.78C21.65,76,18.15,71.09,18.11,71Z"/><path d="M86.51,46c0,.21,3.83,20.82-6.9,31.66a.5.5,0,1,0,.71.7C91.41,67.11,87.53,46,87.49,45.77a.51.51,0,0,0-.58-.4A.5.5,0,0,0,86.51,46Z"/></g></svg>